<svg id="visual" viewBox="0 0 960 540" width="960" height="540" xmlns="http://www.w3.org/2000/svg" xmlns:xlink="http://www.w3.org/1999/xlink" version="1.1"><rect x="0" y="0" width="960" height="540" fill="#ebf4fa"></rect><path d="M0 381L22.8 370.5C45.7 360 91.3 339 137 336.3C182.7 333.7 228.3 349.3 274 362.8C319.7 376.3 365.3 387.7 411.2 388.3C457 389 503 379 548.8 373.2C594.7 367.3 640.3 365.7 686 357.8C731.7 350 777.3 336 823 341.5C868.7 347 914.3 372 937.2 384.5L960 397L960 541L937.2 541C914.3 541 868.7 541 823 541C777.3 541 731.7 541 686 541C640.3 541 594.7 541 548.8 541C503 541 457 541 411.2 541C365.3 541 319.7 541 274 541C228.3 541 182.7 541 137 541C91.3 541 45.7 541 22.8 541L0 541Z" fill="#cccccc"></path><path d="M0 359L22.8 369C45.7 379 91.3 399 137 399.2C182.7 399.3 228.3 379.7 274 374.2C319.7 368.7 365.3 377.3 411.2 381.8C457 386.3 503 386.7 548.8 389C594.7 391.3 640.3 395.7 686 403C731.7 410.3 777.3 420.7 823 417.7C868.7 414.7 914.3 398.3 937.2 390.2L960 382L960 541L937.2 541C914.3 541 868.7 541 823 541C777.3 541 731.7 541 686 541C640.3 541 594.7 541 548.8 541C503 541 457 541 411.2 541C365.3 541 319.7 541 274 541C228.3 541 182.7 541 137 541C91.3 541 45.7 541 22.8 541L0 541Z" fill="#d8d8d8"></path><path d="M0 418L22.8 417.5C45.7 417 91.3 416 137 412.3C182.7 408.7 228.3 402.3 274 409.7C319.7 417 365.3 438 411.2 439.8C457 441.7 503 424.3 548.8 419C594.7 413.7 640.3 420.3 686 422.2C731.7 424 777.3 421 823 417C868.7 413 914.3 408 937.2 405.5L960 403L960 541L937.2 541C914.3 541 868.7 541 823 541C777.3 541 731.7 541 686 541C640.3 541 594.7 541 548.8 541C503 541 457 541 411.2 541C365.3 541 319.7 541 274 541C228.3 541 182.7 541 137 541C91.3 541 45.7 541 22.8 541L0 541Z" fill="#e5e5e5"></path><path d="M0 452L22.8 453C45.7 454 91.3 456 137 457.3C182.7 458.7 228.3 459.3 274 457.8C319.7 456.3 365.3 452.7 411.2 450C457 447.3 503 445.7 548.8 451.5C594.7 457.3 640.3 470.7 686 476.5C731.7 482.3 777.3 480.7 823 476.3C868.7 472 914.3 465 937.2 461.5L960 458L960 541L937.2 541C914.3 541 868.7 541 823 541C777.3 541 731.7 541 686 541C640.3 541 594.7 541 548.8 541C503 541 457 541 411.2 541C365.3 541 319.7 541 274 541C228.3 541 182.7 541 137 541C91.3 541 45.7 541 22.8 541L0 541Z" fill="#f2f2f2"></path><path d="M0 473L22.8 474C45.7 475 91.3 477 137 483.3C182.7 489.7 228.3 500.3 274 503.8C319.7 507.3 365.3 503.7 411.2 498.8C457 494 503 488 548.8 490.5C594.7 493 640.3 504 686 509.3C731.7 514.7 777.3 514.3 823 513.3C868.7 512.3 914.3 510.7 937.2 509.8L960 509L960 541L937.2 541C914.3 541 868.7 541 823 541C777.3 541 731.7 541 686 541C640.3 541 594.7 541 548.8 541C503 541 457 541 411.2 541C365.3 541 319.7 541 274 541C228.3 541 182.7 541 137 541C91.3 541 45.7 541 22.8 541L0 541Z" fill="#ffffff"></path></svg>