<svg id="visual" viewBox="0 0 900 600" width="900" height="600" xmlns="http://www.w3.org/2000/svg" xmlns:xlink="http://www.w3.org/1999/xlink" version="1.1"><rect x="0" y="0" width="900" height="600" fill="#fef6f6"></rect><defs><linearGradient id="grad1_0" x1="33.3%" y1="100%" x2="100%" y2="0%"><stop offset="20%" stop-color="#9689ea" stop-opacity="1"></stop><stop offset="80%" stop-color="#9689ea" stop-opacity="1"></stop></linearGradient></defs><defs><linearGradient id="grad1_1" x1="33.3%" y1="100%" x2="100%" y2="0%"><stop offset="20%" stop-color="#9689ea" stop-opacity="1"></stop><stop offset="80%" stop-color="#bb92e3" stop-opacity="1"></stop></linearGradient></defs><defs><linearGradient id="grad1_2" x1="33.3%" y1="100%" x2="100%" y2="0%"><stop offset="20%" stop-color="#d69ddd" stop-opacity="1"></stop><stop offset="80%" stop-color="#bb92e3" stop-opacity="1"></stop></linearGradient></defs><defs><linearGradient id="grad1_3" x1="33.3%" y1="100%" x2="100%" y2="0%"><stop offset="20%" stop-color="#d69ddd" stop-opacity="1"></stop><stop offset="80%" stop-color="#e8acd9" stop-opacity="1"></stop></linearGradient></defs><defs><linearGradient id="grad1_4" x1="33.3%" y1="100%" x2="100%" y2="0%"><stop offset="20%" stop-color="#f5bdd9" stop-opacity="1"></stop><stop offset="80%" stop-color="#e8acd9" stop-opacity="1"></stop></linearGradient></defs><defs><linearGradient id="grad1_5" x1="33.3%" y1="100%" x2="100%" y2="0%"><stop offset="20%" stop-color="#f5bdd9" stop-opacity="1"></stop><stop offset="80%" stop-color="#fbcfdd" stop-opacity="1"></stop></linearGradient></defs><defs><linearGradient id="grad1_6" x1="33.3%" y1="100%" x2="100%" y2="0%"><stop offset="20%" stop-color="#fee3e7" stop-opacity="1"></stop><stop offset="80%" stop-color="#fbcfdd" stop-opacity="1"></stop></linearGradient></defs><defs><linearGradient id="grad1_7" x1="33.3%" y1="100%" x2="100%" y2="0%"><stop offset="20%" stop-color="#fee3e7" stop-opacity="1"></stop><stop offset="80%" stop-color="#fef6f6" stop-opacity="1"></stop></linearGradient></defs><defs><linearGradient id="grad2_0" x1="0%" y1="100%" x2="66.7%" y2="0%"><stop offset="20%" stop-color="#9689ea" stop-opacity="1"></stop><stop offset="80%" stop-color="#9689ea" stop-opacity="1"></stop></linearGradient></defs><defs><linearGradient id="grad2_1" x1="0%" y1="100%" x2="66.7%" y2="0%"><stop offset="20%" stop-color="#bb92e3" stop-opacity="1"></stop><stop offset="80%" stop-color="#9689ea" stop-opacity="1"></stop></linearGradient></defs><defs><linearGradient id="grad2_2" x1="0%" y1="100%" x2="66.7%" y2="0%"><stop offset="20%" stop-color="#bb92e3" stop-opacity="1"></stop><stop offset="80%" stop-color="#d69ddd" stop-opacity="1"></stop></linearGradient></defs><defs><linearGradient id="grad2_3" x1="0%" y1="100%" x2="66.7%" y2="0%"><stop offset="20%" stop-color="#e8acd9" stop-opacity="1"></stop><stop offset="80%" stop-color="#d69ddd" stop-opacity="1"></stop></linearGradient></defs><defs><linearGradient id="grad2_4" x1="0%" y1="100%" x2="66.7%" y2="0%"><stop offset="20%" stop-color="#e8acd9" stop-opacity="1"></stop><stop offset="80%" stop-color="#f5bdd9" stop-opacity="1"></stop></linearGradient></defs><defs><linearGradient id="grad2_5" x1="0%" y1="100%" x2="66.7%" y2="0%"><stop offset="20%" stop-color="#fbcfdd" stop-opacity="1"></stop><stop offset="80%" stop-color="#f5bdd9" stop-opacity="1"></stop></linearGradient></defs><defs><linearGradient id="grad2_6" x1="0%" y1="100%" x2="66.7%" y2="0%"><stop offset="20%" stop-color="#fbcfdd" stop-opacity="1"></stop><stop offset="80%" stop-color="#fee3e7" stop-opacity="1"></stop></linearGradient></defs><defs><linearGradient id="grad2_7" x1="0%" y1="100%" x2="66.7%" y2="0%"><stop offset="20%" stop-color="#fef6f6" stop-opacity="1"></stop><stop offset="80%" stop-color="#fee3e7" stop-opacity="1"></stop></linearGradient></defs><g transform="translate(900, 600)"><path d="M-297.5 0C-295.4 -41.1 -293.4 -82.2 -274.8 -113.8C-256.2 -145.4 -221.1 -167.6 -191.6 -191.6C-162.2 -215.7 -138.5 -241.7 -107.5 -259.6C-76.6 -277.6 -38.3 -287.5 0 -297.5L0 0Z" fill="#feecee"></path><path d="M-260.3 0C-258.5 -36 -256.7 -71.9 -240.5 -99.6C-224.2 -127.3 -193.4 -146.6 -167.7 -167.7C-141.9 -188.7 -121.2 -211.4 -94.1 -227.2C-67 -242.9 -33.5 -251.6 0 -260.3L0 0Z" fill="#fdd9e1"></path><path d="M-223.1 0C-221.6 -30.8 -220.1 -61.7 -206.1 -85.4C-192.2 -109.1 -165.8 -125.7 -143.7 -143.7C-121.6 -161.8 -103.9 -181.2 -80.7 -194.7C-57.4 -208.2 -28.7 -215.6 0 -223.1L0 0Z" fill="#f9c6db"></path><path d="M-185.9 0C-184.6 -25.7 -183.4 -51.4 -171.8 -71.1C-160.1 -90.9 -138.2 -104.7 -119.8 -119.8C-101.4 -134.8 -86.6 -151 -67.2 -162.3C-47.8 -173.5 -23.9 -179.7 0 -185.9L0 0Z" fill="#efb4d9"></path><path d="M-148.7 0C-147.7 -20.6 -146.7 -41.1 -137.4 -56.9C-128.1 -72.7 -110.5 -83.8 -95.8 -95.8C-81.1 -107.8 -69.3 -120.8 -53.8 -129.8C-38.3 -138.8 -19.1 -143.8 0 -148.7L0 0Z" fill="#e0a4db"></path><path d="M-111.5 0C-110.8 -15.4 -110 -30.8 -103.1 -42.7C-96.1 -54.5 -82.9 -62.8 -71.9 -71.9C-60.8 -80.9 -51.9 -90.6 -40.3 -97.4C-28.7 -104.1 -14.4 -107.8 0 -111.5L0 0Z" fill="#ca97e0"></path><path d="M-74.4 0C-73.9 -10.3 -73.4 -20.6 -68.7 -28.5C-64.1 -36.4 -55.3 -41.9 -47.9 -47.9C-40.5 -53.9 -34.6 -60.4 -26.9 -64.9C-19.1 -69.4 -9.6 -71.9 0 -74.4L0 0Z" fill="#aa8de7"></path><path d="M-37.2 0C-36.9 -5.1 -36.7 -10.3 -34.4 -14.2C-32 -18.2 -27.6 -20.9 -24 -24C-20.3 -27 -17.3 -30.2 -13.4 -32.5C-9.6 -34.7 -4.8 -35.9 0 -37.2L0 0Z" fill="#9689ea"></path></g><g transform="translate(0, 0)"><path d="M297.5 0C294.3 39.6 291.1 79.1 274.8 113.8C258.6 148.5 229.2 178.3 198 198C166.7 217.7 133.6 227.2 100.3 242.1C66.9 256.9 33.5 277.2 0 297.5L0 0Z" fill="#feecee"></path><path d="M260.3 0C257.5 34.6 254.7 69.3 240.5 99.6C226.2 130 200.6 156 173.2 173.2C145.9 190.4 116.9 198.8 87.7 211.8C58.6 224.8 29.3 242.6 0 260.3L0 0Z" fill="#fdd9e1"></path><path d="M223.1 0C220.7 29.7 218.3 59.4 206.1 85.4C193.9 111.4 171.9 133.7 148.5 148.5C125.1 163.2 100.2 170.4 75.2 181.5C50.2 192.7 25.1 207.9 0 223.1L0 0Z" fill="#f9c6db"></path><path d="M185.9 0C183.9 24.7 181.9 49.5 171.8 71.1C161.6 92.8 143.3 111.5 123.7 123.7C104.2 136 83.5 142 62.7 151.3C41.8 160.6 20.9 173.3 0 185.9L0 0Z" fill="#efb4d9"></path><path d="M148.7 0C147.1 19.8 145.5 39.6 137.4 56.9C129.3 74.3 114.6 89.2 99 99C83.4 108.8 66.8 113.6 50.1 121C33.5 128.5 16.7 138.6 0 148.7L0 0Z" fill="#e0a4db"></path><path d="M111.5 0C110.3 14.8 109.2 29.7 103.1 42.7C97 55.7 86 66.9 74.2 74.2C62.5 81.6 50.1 85.2 37.6 90.8C25.1 96.4 12.6 104 0 111.5L0 0Z" fill="#ca97e0"></path><path d="M74.4 0C73.6 9.9 72.8 19.8 68.7 28.5C64.6 37.1 57.3 44.6 49.5 49.5C41.7 54.4 33.4 56.8 25.1 60.5C16.7 64.2 8.4 69.3 0 74.4L0 0Z" fill="#aa8de7"></path><path d="M37.2 0C36.8 4.9 36.4 9.9 34.4 14.2C32.3 18.6 28.7 22.3 24.7 24.7C20.8 27.2 16.7 28.4 12.5 30.3C8.4 32.1 4.2 34.7 0 37.2L0 0Z" fill="#9689ea"></path></g></svg>