<svg id="visual" viewBox="0 0 900 600" width="900" height="600" xmlns="http://www.w3.org/2000/svg" xmlns:xlink="http://www.w3.org/1999/xlink" version="1.1"><rect x="0" y="0" width="900" height="600" fill="#fef6f6"></rect><defs><linearGradient id="grad1_0" x1="33.3%" y1="0%" x2="100%" y2="100%"><stop offset="20%" stop-color="#cccccc" stop-opacity="1"></stop><stop offset="80%" stop-color="#cccccc" stop-opacity="1"></stop></linearGradient></defs><defs><linearGradient id="grad1_1" x1="33.3%" y1="0%" x2="100%" y2="100%"><stop offset="20%" stop-color="#cccccc" stop-opacity="1"></stop><stop offset="80%" stop-color="#d6d4d4" stop-opacity="1"></stop></linearGradient></defs><defs><linearGradient id="grad1_2" x1="33.3%" y1="0%" x2="100%" y2="100%"><stop offset="20%" stop-color="#e0dddd" stop-opacity="1"></stop><stop offset="80%" stop-color="#d6d4d4" stop-opacity="1"></stop></linearGradient></defs><defs><linearGradient id="grad1_3" x1="33.3%" y1="0%" x2="100%" y2="100%"><stop offset="20%" stop-color="#e0dddd" stop-opacity="1"></stop><stop offset="80%" stop-color="#eae5e5" stop-opacity="1"></stop></linearGradient></defs><defs><linearGradient id="grad1_4" x1="33.3%" y1="0%" x2="100%" y2="100%"><stop offset="20%" stop-color="#f4eded" stop-opacity="1"></stop><stop offset="80%" stop-color="#eae5e5" stop-opacity="1"></stop></linearGradient></defs><defs><linearGradient id="grad1_5" x1="33.3%" y1="0%" x2="100%" y2="100%"><stop offset="20%" stop-color="#f4eded" stop-opacity="1"></stop><stop offset="80%" stop-color="#fef6f6" stop-opacity="1"></stop></linearGradient></defs><defs><linearGradient id="grad2_0" x1="0%" y1="0%" x2="66.7%" y2="100%"><stop offset="20%" stop-color="#cccccc" stop-opacity="1"></stop><stop offset="80%" stop-color="#cccccc" stop-opacity="1"></stop></linearGradient></defs><defs><linearGradient id="grad2_1" x1="0%" y1="0%" x2="66.7%" y2="100%"><stop offset="20%" stop-color="#d6d4d4" stop-opacity="1"></stop><stop offset="80%" stop-color="#cccccc" stop-opacity="1"></stop></linearGradient></defs><defs><linearGradient id="grad2_2" x1="0%" y1="0%" x2="66.7%" y2="100%"><stop offset="20%" stop-color="#d6d4d4" stop-opacity="1"></stop><stop offset="80%" stop-color="#e0dddd" stop-opacity="1"></stop></linearGradient></defs><defs><linearGradient id="grad2_3" x1="0%" y1="0%" x2="66.7%" y2="100%"><stop offset="20%" stop-color="#eae5e5" stop-opacity="1"></stop><stop offset="80%" stop-color="#e0dddd" stop-opacity="1"></stop></linearGradient></defs><defs><linearGradient id="grad2_4" x1="0%" y1="0%" x2="66.7%" y2="100%"><stop offset="20%" stop-color="#eae5e5" stop-opacity="1"></stop><stop offset="80%" stop-color="#f4eded" stop-opacity="1"></stop></linearGradient></defs><defs><linearGradient id="grad2_5" x1="0%" y1="0%" x2="66.7%" y2="100%"><stop offset="20%" stop-color="#fef6f6" stop-opacity="1"></stop><stop offset="80%" stop-color="#f4eded" stop-opacity="1"></stop></linearGradient></defs><g transform="translate(900, 0)"><path d="M0 231C-25.5 231.1 -51 231.2 -72.3 222.5C-93.6 213.9 -110.7 196.5 -133.4 183.6C-156.1 170.8 -184.4 162.6 -196.9 143.1C-209.4 123.5 -206 92.5 -205.4 66.7C-204.8 41 -206.9 20.5 -209 0L0 0Z" fill="#f9f2f2"></path><path d="M0 192.5C-21.3 192.6 -42.5 192.7 -60.3 185.5C-78 178.2 -92.3 163.7 -111.2 153C-130.1 142.4 -153.7 135.5 -164.1 119.2C-174.5 102.9 -171.7 77.1 -171.2 55.6C-170.7 34.2 -172.4 17.1 -174.2 0L0 0Z" fill="#efe9e9"></path><path d="M0 154C-17 154.1 -34 154.1 -48.2 148.4C-62.4 142.6 -73.8 131 -89 122.4C-104.1 113.9 -122.9 108.4 -131.3 95.4C-139.6 82.3 -137.4 61.7 -137 44.5C-136.5 27.3 -137.9 13.7 -139.3 0L0 0Z" fill="#e5e1e1"></path><path d="M0 115.5C-12.8 115.6 -25.5 115.6 -36.2 111.3C-46.8 106.9 -55.4 98.2 -66.7 91.8C-78.1 85.4 -92.2 81.3 -98.4 71.5C-104.7 61.7 -103 46.2 -102.7 33.4C-102.4 20.5 -103.5 10.3 -104.5 0L0 0Z" fill="#dbd8d8"></path><path d="M0 77C-8.5 77 -17 77.1 -24.1 74.2C-31.2 71.3 -36.9 65.5 -44.5 61.2C-52 56.9 -61.5 54.2 -65.6 47.7C-69.8 41.2 -68.7 30.8 -68.5 22.2C-68.3 13.7 -69 6.8 -69.7 0L0 0Z" fill="#d1d0d0"></path><path d="M0 38.5C-4.3 38.5 -8.5 38.5 -12.1 37.1C-15.6 35.6 -18.5 32.7 -22.2 30.6C-26 28.5 -30.7 27.1 -32.8 23.8C-34.9 20.6 -34.3 15.4 -34.2 11.1C-34.1 6.8 -34.5 3.4 -34.8 0L0 0Z" fill="#cccccc"></path></g><g transform="translate(0, 600)"><path d="M0 -203C26.9 -214.8 53.7 -226.5 69.8 -214.9C85.9 -203.3 91.3 -168.4 113.4 -156.1C135.6 -143.9 174.6 -154.5 196.9 -143.1C219.2 -131.6 224.7 -98.3 217.8 -70.8C210.9 -43.3 191.4 -21.6 172 0L0 0Z" fill="#f9f2f2"></path><path d="M0 -169.2C22.4 -179 44.8 -188.8 58.2 -179.1C71.6 -169.4 76.1 -140.3 94.5 -130.1C113 -119.9 145.5 -128.7 164.1 -119.2C182.6 -109.7 187.3 -81.9 181.5 -59C175.7 -36.1 159.5 -18 143.3 0L0 0Z" fill="#efe9e9"></path><path d="M0 -135.3C17.9 -143.2 35.8 -151 46.6 -143.3C57.3 -135.6 60.8 -112.2 75.6 -104.1C90.4 -95.9 116.4 -103 131.3 -95.4C146.1 -87.8 149.8 -65.5 145.2 -47.2C140.6 -28.8 127.6 -14.4 114.7 0L0 0Z" fill="#e5e1e1"></path><path d="M0 -101.5C13.4 -107.4 26.9 -113.3 34.9 -107.5C43 -101.7 45.6 -84.2 56.7 -78.1C67.8 -72 87.3 -77.2 98.4 -71.5C109.6 -65.8 112.4 -49.1 108.9 -35.4C105.4 -21.6 95.7 -10.8 86 0L0 0Z" fill="#dbd8d8"></path><path d="M0 -67.7C9 -71.6 17.9 -75.5 23.3 -71.6C28.6 -67.8 30.4 -56.1 37.8 -52C45.2 -48 58.2 -51.5 65.6 -47.7C73.1 -43.9 74.9 -32.8 72.6 -23.6C70.3 -14.4 63.8 -7.2 57.3 0L0 0Z" fill="#d1d0d0"></path><path d="M0 -33.8C4.5 -35.8 9 -37.8 11.6 -35.8C14.3 -33.9 15.2 -28.1 18.9 -26C22.6 -24 29.1 -25.7 32.8 -23.8C36.5 -21.9 37.5 -16.4 36.3 -11.8C35.1 -7.2 31.9 -3.6 28.7 0L0 0Z" fill="#cccccc"></path></g></svg>