<svg id="visual" viewBox="0 0 900 900" width="900" height="900" xmlns="http://www.w3.org/2000/svg" xmlns:xlink="http://www.w3.org/1999/xlink" version="1.1"><rect x="0" y="0" width="900" height="900" fill="#fef6f6"></rect><defs><linearGradient id="grad1_0" x1="0%" y1="0%" x2="100%" y2="100%"><stop offset="30%" stop-color="#a49898" stop-opacity="1"></stop><stop offset="70%" stop-color="#a49898" stop-opacity="1"></stop></linearGradient></defs><defs><linearGradient id="grad1_1" x1="0%" y1="0%" x2="100%" y2="100%"><stop offset="30%" stop-color="#a49898" stop-opacity="1"></stop><stop offset="70%" stop-color="#b2a7a7" stop-opacity="1"></stop></linearGradient></defs><defs><linearGradient id="grad1_2" x1="0%" y1="0%" x2="100%" y2="100%"><stop offset="30%" stop-color="#c1b6b6" stop-opacity="1"></stop><stop offset="70%" stop-color="#b2a7a7" stop-opacity="1"></stop></linearGradient></defs><defs><linearGradient id="grad1_3" x1="0%" y1="0%" x2="100%" y2="100%"><stop offset="30%" stop-color="#c1b6b6" stop-opacity="1"></stop><stop offset="70%" stop-color="#d0c6c6" stop-opacity="1"></stop></linearGradient></defs><defs><linearGradient id="grad1_4" x1="0%" y1="0%" x2="100%" y2="100%"><stop offset="30%" stop-color="#dfd6d6" stop-opacity="1"></stop><stop offset="70%" stop-color="#d0c6c6" stop-opacity="1"></stop></linearGradient></defs><defs><linearGradient id="grad1_5" x1="0%" y1="0%" x2="100%" y2="100%"><stop offset="30%" stop-color="#dfd6d6" stop-opacity="1"></stop><stop offset="70%" stop-color="#efe6e6" stop-opacity="1"></stop></linearGradient></defs><defs><linearGradient id="grad1_6" x1="0%" y1="0%" x2="100%" y2="100%"><stop offset="30%" stop-color="#fef6f6" stop-opacity="1"></stop><stop offset="70%" stop-color="#efe6e6" stop-opacity="1"></stop></linearGradient></defs><defs><linearGradient id="grad2_0" x1="0%" y1="0%" x2="100%" y2="100%"><stop offset="30%" stop-color="#a49898" stop-opacity="1"></stop><stop offset="70%" stop-color="#a49898" stop-opacity="1"></stop></linearGradient></defs><defs><linearGradient id="grad2_1" x1="0%" y1="0%" x2="100%" y2="100%"><stop offset="30%" stop-color="#b2a7a7" stop-opacity="1"></stop><stop offset="70%" stop-color="#a49898" stop-opacity="1"></stop></linearGradient></defs><defs><linearGradient id="grad2_2" x1="0%" y1="0%" x2="100%" y2="100%"><stop offset="30%" stop-color="#b2a7a7" stop-opacity="1"></stop><stop offset="70%" stop-color="#c1b6b6" stop-opacity="1"></stop></linearGradient></defs><defs><linearGradient id="grad2_3" x1="0%" y1="0%" x2="100%" y2="100%"><stop offset="30%" stop-color="#d0c6c6" stop-opacity="1"></stop><stop offset="70%" stop-color="#c1b6b6" stop-opacity="1"></stop></linearGradient></defs><defs><linearGradient id="grad2_4" x1="0%" y1="0%" x2="100%" y2="100%"><stop offset="30%" stop-color="#d0c6c6" stop-opacity="1"></stop><stop offset="70%" stop-color="#dfd6d6" stop-opacity="1"></stop></linearGradient></defs><defs><linearGradient id="grad2_5" x1="0%" y1="0%" x2="100%" y2="100%"><stop offset="30%" stop-color="#efe6e6" stop-opacity="1"></stop><stop offset="70%" stop-color="#dfd6d6" stop-opacity="1"></stop></linearGradient></defs><defs><linearGradient id="grad2_6" x1="0%" y1="0%" x2="100%" y2="100%"><stop offset="30%" stop-color="#efe6e6" stop-opacity="1"></stop><stop offset="70%" stop-color="#fef6f6" stop-opacity="1"></stop></linearGradient></defs><g transform="translate(900, 0)"><path d="M0 381.8C-61.5 363.3 -122.9 344.7 -182 315.2C-241.1 285.7 -297.8 245.3 -330.7 190.9C-363.6 136.6 -372.7 68.3 -381.8 0L0 0Z" fill="#f6eeee"></path><path d="M0 327.3C-52.7 311.4 -105.4 295.5 -156 270.2C-206.6 244.9 -255.2 210.2 -283.4 163.6C-311.6 117 -319.5 58.5 -327.3 0L0 0Z" fill="#e7dede"></path><path d="M0 272.7C-43.9 259.5 -87.8 246.2 -130 225.2C-172.2 204.1 -212.7 175.2 -236.2 136.4C-259.7 97.5 -266.2 48.8 -272.7 0L0 0Z" fill="#d8cece"></path><path d="M0 218.2C-35.1 207.6 -70.2 197 -104 180.1C-137.8 163.3 -170.2 140.2 -189 109.1C-207.8 78 -213 39 -218.2 0L0 0Z" fill="#c9bebe"></path><path d="M0 163.6C-26.3 155.7 -52.7 147.7 -78 135.1C-103.3 122.5 -127.6 105.1 -141.7 81.8C-155.8 58.5 -159.7 29.3 -163.6 0L0 0Z" fill="#baafaf"></path><path d="M0 109.1C-17.6 103.8 -35.1 98.5 -52 90.1C-68.9 81.6 -85.1 70.1 -94.5 54.5C-103.9 39 -106.5 19.5 -109.1 0L0 0Z" fill="#aba0a0"></path><path d="M0 54.5C-8.8 51.9 -17.6 49.2 -26 45C-34.4 40.8 -42.5 35 -47.2 27.3C-51.9 19.5 -53.2 9.8 -54.5 0L0 0Z" fill="#a49898"></path></g><g transform="translate(0, 900)"><path d="M0 -381.8C50.8 -344.8 101.6 -307.8 162 -280.6C222.4 -253.4 292.4 -236 330.7 -190.9C368.9 -145.8 375.4 -72.9 381.8 0L0 0Z" fill="#f6eeee"></path><path d="M0 -327.3C43.5 -295.6 87.1 -263.8 138.9 -240.5C190.6 -217.2 250.7 -202.3 283.4 -163.6C316.2 -125 321.8 -62.5 327.3 0L0 0Z" fill="#e7dede"></path><path d="M0 -272.7C36.3 -246.3 72.6 -219.8 115.7 -200.4C158.9 -181 208.9 -168.6 236.2 -136.4C263.5 -104.1 268.1 -52.1 272.7 0L0 0Z" fill="#d8cece"></path><path d="M0 -218.2C29 -197 58.1 -175.9 92.6 -160.3C127.1 -144.8 167.1 -134.9 189 -109.1C210.8 -83.3 214.5 -41.7 218.2 0L0 0Z" fill="#c9bebe"></path><path d="M0 -163.6C21.8 -147.8 43.5 -131.9 69.4 -120.3C95.3 -108.6 125.3 -101.2 141.7 -81.8C158.1 -62.5 160.9 -31.2 163.6 0L0 0Z" fill="#baafaf"></path><path d="M0 -109.1C14.5 -98.5 29 -87.9 46.3 -80.2C63.5 -72.4 83.6 -67.4 94.5 -54.5C105.4 -41.7 107.3 -20.8 109.1 0L0 0Z" fill="#aba0a0"></path><path d="M0 -54.5C7.3 -49.3 14.5 -44 23.1 -40.1C31.8 -36.2 41.8 -33.7 47.2 -27.3C52.7 -20.8 53.6 -10.4 54.5 0L0 0Z" fill="#a49898"></path></g></svg>