<svg id="visual" viewBox="0 0 900 600" width="900" height="600" xmlns="http://www.w3.org/2000/svg" xmlns:xlink="http://www.w3.org/1999/xlink" version="1.1"><rect x="0" y="0" width="900" height="600" fill="#CCCCCC"></rect><path d="M0 512L30 502.7C60 493.3 120 474.7 180 469.5C240 464.3 300 472.7 360 479.5C420 486.3 480 491.7 540 493.5C600 495.3 660 493.7 720 494.5C780 495.3 840 498.7 870 500.3L900 502L900 601L870 601C840 601 780 601 720 601C660 601 600 601 540 601C480 601 420 601 360 601C300 601 240 601 180 601C120 601 60 601 30 601L0 601Z" fill="#381ef0" stroke-linecap="round" stroke-linejoin="miter"></path></svg>