<svg id="visual" viewBox="0 0 900 900" width="900" height="900" xmlns="http://www.w3.org/2000/svg" xmlns:xlink="http://www.w3.org/1999/xlink" version="1.1"><rect x="0" y="0" width="900" height="900" fill="#fcfcfc"></rect><path d="M0 652L21.5 656.8C43 661.7 86 671.3 128.8 673.2C171.7 675 214.3 669 257.2 671.2C300 673.3 343 683.7 385.8 683.2C428.7 682.7 471.3 671.3 514.2 668.2C557 665 600 670 642.8 674.5C685.7 679 728.3 683 771.2 683.8C814 684.7 857 682.3 878.5 681.2L900 680L900 901L878.5 901C857 901 814 901 771.2 901C728.3 901 685.7 901 642.8 901C600 901 557 901 514.2 901C471.3 901 428.7 901 385.8 901C343 901 300 901 257.2 901C214.3 901 171.7 901 128.8 901C86 901 43 901 21.5 901L0 901Z" fill="#fef6f6"></path></svg>