<svg id="visual" viewBox="0 0 900 450" width="900" height="450" xmlns="http://www.w3.org/2000/svg" xmlns:xlink="http://www.w3.org/1999/xlink" version="1.1"><path d="M0 42L37.5 45C75 48 150 54 225 54C300 54 375 48 450 45C525 42 600 42 675 44.2C750 46.3 825 50.7 862.5 52.8L900 55L900 0L862.5 0C825 0 750 0 675 0C600 0 525 0 450 0C375 0 300 0 225 0C150 0 75 0 37.5 0L0 0Z" fill="#e1e6f2"></path><path d="M0 78L37.5 79.5C75 81 150 84 225 86.2C300 88.3 375 89.7 450 88.8C525 88 600 85 675 86.5C750 88 825 94 862.5 97L900 100L900 53L862.5 50.8C825 48.7 750 44.3 675 42.2C600 40 525 40 450 43C375 46 300 52 225 52C150 52 75 46 37.5 43L0 40Z" fill="#dce2f0"></path><path d="M0 141L37.5 144.7C75 148.3 150 155.7 225 156.3C300 157 375 151 450 146.5C525 142 600 139 675 141.3C750 143.7 825 151.3 862.5 155.2L900 159L900 98L862.5 95C825 92 750 86 675 84.5C600 83 525 86 450 86.8C375 87.7 300 86.3 225 84.2C150 82 75 79 37.5 77.5L0 76Z" fill="#d6dfee"></path><path d="M0 163L37.5 167.5C75 172 150 181 225 183.3C300 185.7 375 181.3 450 176.8C525 172.3 600 167.7 675 169.8C750 172 825 181 862.5 185.5L900 190L900 157L862.5 153.2C825 149.3 750 141.7 675 139.3C600 137 525 140 450 144.5C375 149 300 155 225 154.3C150 153.7 75 146.3 37.5 142.7L0 139Z" fill="#d0dbec"></path><path d="M0 213L37.5 218.2C75 223.3 150 233.7 225 233.7C300 233.7 375 223.3 450 219.7C525 216 600 219 675 221.2C750 223.3 825 224.7 862.5 225.3L900 226L900 188L862.5 183.5C825 179 750 170 675 167.8C600 165.7 525 170.3 450 174.8C375 179.3 300 183.7 225 181.3C150 179 75 170 37.5 165.5L0 161Z" fill="#c9d6e9"></path><path d="M0 370L37.5 371.5C75 373 150 376 225 366.3C300 356.7 375 334.3 450 322.3C525 310.3 600 308.7 675 310.2C750 311.7 825 316.3 862.5 318.7L900 321L900 224L862.5 223.3C825 222.7 750 221.3 675 219.2C600 217 525 214 450 217.7C375 221.3 300 231.7 225 231.7C150 231.7 75 221.3 37.5 216.2L0 211Z" fill="#c2d0e6"></path><path d="M0 451L37.5 451C75 451 150 451 225 451C300 451 375 451 450 451C525 451 600 451 675 451C750 451 825 451 862.5 451L900 451L900 319L862.5 316.7C825 314.3 750 309.7 675 308.2C600 306.7 525 308.3 450 320.3C375 332.3 300 354.7 225 364.3C150 374 75 371 37.5 369.5L0 368Z" fill="#bbcbe3"></path></svg>