<svg id="visual" viewBox="0 0 600 900" width="600" height="900" xmlns="http://www.w3.org/2000/svg" xmlns:xlink="http://www.w3.org/1999/xlink" version="1.1"><rect x="0" y="0" width="600" height="900" fill="#ffffff"></rect><path d="M0 669L20 669C40 669 80 669 120 687.7C160 706.3 200 743.7 240 738C280 732.3 320 683.7 360 664C400 644.3 440 653.7 480 666.5C520 679.3 560 695.7 580 703.8L600 712L600 901L580 901C560 901 520 901 480 901C440 901 400 901 360 901C320 901 280 901 240 901C200 901 160 901 120 901C80 901 40 901 20 901L0 901Z" fill="#061121" stroke-linecap="round" stroke-linejoin="miter"></path></svg>