<svg id="visual" viewBox="0 0 960 540" width="960" height="540" xmlns="http://www.w3.org/2000/svg" xmlns:xlink="http://www.w3.org/1999/xlink" version="1.1"><rect x="0" y="0" width="960" height="540" fill="#ffffff"></rect><path d="M0 397L32 398C64 399 128 401 192 385.2C256 369.3 320 335.7 384 339.3C448 343 512 384 576 390.2C640 396.3 704 367.7 768 349.8C832 332 896 325 928 321.5L960 318L960 541L928 541C896 541 832 541 768 541C704 541 640 541 576 541C512 541 448 541 384 541C320 541 256 541 192 541C128 541 64 541 32 541L0 541Z" fill="#061121" stroke-linecap="round" stroke-linejoin="miter"></path></svg>