<svg id="visual" viewBox="0 0 900 600" width="900" height="600" xmlns="http://www.w3.org/2000/svg" xmlns:xlink="http://www.w3.org/1999/xlink" version="1.1"><rect x="0" y="0" width="900" height="600" fill="#fefeff"></rect><defs><linearGradient id="grad1_0" x1="33.3%" y1="0%" x2="100%" y2="100%"><stop offset="20%" stop-color="#000000" stop-opacity="1"></stop><stop offset="80%" stop-color="#000000" stop-opacity="1"></stop></linearGradient></defs><defs><linearGradient id="grad1_1" x1="33.3%" y1="0%" x2="100%" y2="100%"><stop offset="20%" stop-color="#000000" stop-opacity="1"></stop><stop offset="80%" stop-color="#29292a" stop-opacity="1"></stop></linearGradient></defs><defs><linearGradient id="grad1_2" x1="33.3%" y1="0%" x2="100%" y2="100%"><stop offset="20%" stop-color="#4e4e4f" stop-opacity="1"></stop><stop offset="80%" stop-color="#29292a" stop-opacity="1"></stop></linearGradient></defs><defs><linearGradient id="grad1_3" x1="33.3%" y1="0%" x2="100%" y2="100%"><stop offset="20%" stop-color="#4e4e4f" stop-opacity="1"></stop><stop offset="80%" stop-color="#767677" stop-opacity="1"></stop></linearGradient></defs><defs><linearGradient id="grad1_4" x1="33.3%" y1="0%" x2="100%" y2="100%"><stop offset="20%" stop-color="#a1a1a2" stop-opacity="1"></stop><stop offset="80%" stop-color="#767677" stop-opacity="1"></stop></linearGradient></defs><defs><linearGradient id="grad1_5" x1="33.3%" y1="0%" x2="100%" y2="100%"><stop offset="20%" stop-color="#a1a1a2" stop-opacity="1"></stop><stop offset="80%" stop-color="#cfcfd0" stop-opacity="1"></stop></linearGradient></defs><defs><linearGradient id="grad1_6" x1="33.3%" y1="0%" x2="100%" y2="100%"><stop offset="20%" stop-color="#fefeff" stop-opacity="1"></stop><stop offset="80%" stop-color="#cfcfd0" stop-opacity="1"></stop></linearGradient></defs><defs><linearGradient id="grad2_0" x1="0%" y1="0%" x2="66.7%" y2="100%"><stop offset="20%" stop-color="#000000" stop-opacity="1"></stop><stop offset="80%" stop-color="#000000" stop-opacity="1"></stop></linearGradient></defs><defs><linearGradient id="grad2_1" x1="0%" y1="0%" x2="66.7%" y2="100%"><stop offset="20%" stop-color="#29292a" stop-opacity="1"></stop><stop offset="80%" stop-color="#000000" stop-opacity="1"></stop></linearGradient></defs><defs><linearGradient id="grad2_2" x1="0%" y1="0%" x2="66.7%" y2="100%"><stop offset="20%" stop-color="#29292a" stop-opacity="1"></stop><stop offset="80%" stop-color="#4e4e4f" stop-opacity="1"></stop></linearGradient></defs><defs><linearGradient id="grad2_3" x1="0%" y1="0%" x2="66.7%" y2="100%"><stop offset="20%" stop-color="#767677" stop-opacity="1"></stop><stop offset="80%" stop-color="#4e4e4f" stop-opacity="1"></stop></linearGradient></defs><defs><linearGradient id="grad2_4" x1="0%" y1="0%" x2="66.7%" y2="100%"><stop offset="20%" stop-color="#767677" stop-opacity="1"></stop><stop offset="80%" stop-color="#a1a1a2" stop-opacity="1"></stop></linearGradient></defs><defs><linearGradient id="grad2_5" x1="0%" y1="0%" x2="66.7%" y2="100%"><stop offset="20%" stop-color="#cfcfd0" stop-opacity="1"></stop><stop offset="80%" stop-color="#a1a1a2" stop-opacity="1"></stop></linearGradient></defs><defs><linearGradient id="grad2_6" x1="0%" y1="0%" x2="66.7%" y2="100%"><stop offset="20%" stop-color="#cfcfd0" stop-opacity="1"></stop><stop offset="80%" stop-color="#fefeff" stop-opacity="1"></stop></linearGradient></defs><g transform="translate(900, 0)"><path d="M0 243.4C-44 237.8 -88 232.3 -121.7 210.8C-155.4 189.3 -178.9 151.8 -197.5 114C-216 76.2 -229.7 38.1 -243.4 0L0 0Z" fill="#e6e6e7"></path><path d="M0 208.6C-37.7 203.9 -75.4 199.1 -104.3 180.7C-133.2 162.2 -153.3 130.1 -169.2 97.7C-185.2 65.3 -196.9 32.7 -208.6 0L0 0Z" fill="#b8b8b9"></path><path d="M0 173.8C-31.4 169.9 -62.8 165.9 -86.9 150.5C-111 135.2 -127.8 108.4 -141 81.4C-154.3 54.4 -164.1 27.2 -173.8 0L0 0Z" fill="#8c8c8d"></path><path d="M0 139.1C-25.1 135.9 -50.3 132.7 -69.5 120.4C-88.8 108.1 -102.2 86.7 -112.8 65.1C-123.4 43.5 -131.3 21.8 -139.1 0L0 0Z" fill="#626263"></path><path d="M0 104.3C-18.8 101.9 -37.7 99.5 -52.2 90.3C-66.6 81.1 -76.7 65.1 -84.6 48.9C-92.6 32.7 -98.4 16.3 -104.3 0L0 0Z" fill="#3b3b3c"></path><path d="M0 69.5C-12.6 68 -25.1 66.4 -34.8 60.2C-44.4 54.1 -51.1 43.4 -56.4 32.6C-61.7 21.8 -65.6 10.9 -69.5 0L0 0Z" fill="#181819"></path><path d="M0 34.8C-6.3 34 -12.6 33.2 -17.4 30.1C-22.2 27 -25.6 21.7 -28.2 16.3C-30.9 10.9 -32.8 5.4 -34.8 0L0 0Z" fill="#000000"></path></g><g transform="translate(0, 600)"><path d="M0 -243.4C38.4 -230.2 76.7 -216.9 114.5 -198.3C152.3 -179.7 189.4 -155.6 210.8 -121.7C232.1 -87.7 237.8 -43.9 243.4 0L0 0Z" fill="#e6e6e7"></path><path d="M0 -208.6C32.9 -197.3 65.8 -186 98.1 -170C130.5 -154 162.3 -133.4 180.7 -104.3C199 -75.2 203.8 -37.6 208.6 0L0 0Z" fill="#b8b8b9"></path><path d="M0 -173.8C27.4 -164.4 54.8 -155 81.8 -141.7C108.8 -128.4 135.3 -111.2 150.5 -86.9C165.8 -62.7 169.8 -31.3 173.8 0L0 0Z" fill="#8c8c8d"></path><path d="M0 -139.1C21.9 -131.5 43.9 -124 65.4 -113.3C87 -102.7 108.2 -88.9 120.4 -69.5C132.7 -50.1 135.9 -25.1 139.1 0L0 0Z" fill="#626263"></path><path d="M0 -104.3C16.4 -98.6 32.9 -93 49.1 -85C65.3 -77 81.2 -66.7 90.3 -52.2C99.5 -37.6 101.9 -18.8 104.3 0L0 0Z" fill="#3b3b3c"></path><path d="M0 -69.5C11 -65.8 21.9 -62 32.7 -56.7C43.5 -51.3 54.1 -44.5 60.2 -34.8C66.3 -25.1 67.9 -12.5 69.5 0L0 0Z" fill="#181819"></path><path d="M0 -34.8C5.5 -32.9 11 -31 16.4 -28.3C21.8 -25.7 27.1 -22.2 30.1 -17.4C33.2 -12.5 34 -6.3 34.8 0L0 0Z" fill="#000000"></path></g></svg>