<svg id="visual" viewBox="0 0 900 600" width="900" height="600" xmlns="http://www.w3.org/2000/svg" xmlns:xlink="http://www.w3.org/1999/xlink" version="1.1"><rect x="0" y="0" width="900" height="600" fill="#FFFFFF"></rect><path d="M0 103L18.8 98.5C37.7 94 75.3 85 112.8 82.7C150.3 80.3 187.7 84.7 225.2 85.5C262.7 86.3 300.3 83.7 337.8 82.2C375.3 80.7 412.7 80.3 450.2 78.8C487.7 77.3 525.3 74.7 562.8 78.5C600.3 82.3 637.7 92.7 675.2 97.3C712.7 102 750.3 101 787.8 97.3C825.3 93.7 862.7 87.3 881.3 84.2L900 81L900 0L881.3 0C862.7 0 825.3 0 787.8 0C750.3 0 712.7 0 675.2 0C637.7 0 600.3 0 562.8 0C525.3 0 487.7 0 450.2 0C412.7 0 375.3 0 337.8 0C300.3 0 262.7 0 225.2 0C187.7 0 150.3 0 112.8 0C75.3 0 37.7 0 18.8 0L0 0Z" fill="#c4c6cf" stroke-linecap="round" stroke-linejoin="miter"></path></svg>