<svg id="visual" viewBox="0 0 900 600" width="900" height="600" xmlns="http://www.w3.org/2000/svg" xmlns:xlink="http://www.w3.org/1999/xlink" version="1.1"><rect x="0" y="0" width="900" height="600" fill="#fff7f7"></rect><path d="M0 107L25 101.2C50 95.3 100 83.7 150 79.5C200 75.3 250 78.7 300 79.2C350 79.7 400 77.3 450 80.5C500 83.7 550 92.3 600 97.3C650 102.3 700 103.7 750 100.5C800 97.3 850 89.7 875 85.8L900 82L900 0L875 0C850 0 800 0 750 0C700 0 650 0 600 0C550 0 500 0 450 0C400 0 350 0 300 0C250 0 200 0 150 0C100 0 50 0 25 0L0 0Z" fill="#4f36f1" stroke-linecap="round" stroke-linejoin="miter"></path></svg>